<svg xmlns="http://www.w3.org/2000/svg" width="34.062" height="16.209" viewBox="0 0 34.062 16.209"><path d="M38.215,16.953h-1.31V15.479a2.8,2.8,0,0,0-2.62-2.947H8.083a2.8,2.8,0,0,0-2.62,2.947V25.794a2.8,2.8,0,0,0,2.62,2.947h26.2a2.8,2.8,0,0,0,2.62-2.947V24.321h1.31a1.4,1.4,0,0,0,1.31-1.474V18.427a1.4,1.4,0,0,0-1.31-1.474Zm-2.62,8.842a1.4,1.4,0,0,1-1.31,1.474H8.083a1.4,1.4,0,0,1-1.31-1.474V15.479a1.4,1.4,0,0,1,1.31-1.474h26.2a1.4,1.4,0,0,1,1.31,1.474Zm-27.512,0h7.861V15.479H8.083Z" transform="translate(-5.463 -12.532)"/></svg>